<?xml version="1.0"?>
<svg xmlns="http://www.w3.org/2000/svg"
xmlns:xlink="http://www.w3.org/1999/xlink" xmlns:cml="http://www.xml-cml.org/schema" width="586.747" height="344.195" x="0" y="0" font-family="sans-serif" stroke="rgb(0,0,0)" stroke-width="1"  stroke-linecap="round">
<rect x="0%" y="0%" width="100%" height="100%" stroke-width="0" fill="rgb(255,255,255)"  />
<line x1="222.1" y1="170.9" x2="244.3" y2="157.9" stroke="rgb(0,0,0)"  stroke-width="1.0"/>
<line x1="199.7" y1="170.9" x2="188.7" y2="164.5" stroke="rgb(0,0,0)"  stroke-width="1.0"/>
<line x1="272.2" y1="174.3" x2="273.0" y2="172.9" stroke="rgb(0,0,0)"  stroke-width="1.0"/>
<line x1="266.2" y1="171.7" x2="267.6" y2="169.2" stroke="rgb(0,0,0)"  stroke-width="1.0"/>
<line x1="260.3" y1="169.1" x2="262.3" y2="165.5" stroke="rgb(0,0,0)"  stroke-width="1.0"/>
<line x1="254.3" y1="166.5" x2="256.9" y2="161.8" stroke="rgb(0,0,0)"  stroke-width="1.0"/>
<line x1="248.3" y1="163.9" x2="251.6" y2="158.1" stroke="rgb(0,0,0)"  stroke-width="1.0"/>
<line x1="242.4" y1="161.4" x2="246.2" y2="154.4" stroke="rgb(0,0,0)"  stroke-width="1.0"/>
<line x1="166.1" y1="164.2" x2="142.1" y2="177.5" stroke="rgb(0,0,0)"  stroke-width="1.0"/>
<line x1="279.7" y1="177.5" x2="313.1" y2="157.9" stroke="rgb(0,0,0)"  stroke-width="1.0"/>
<line x1="312.3" y1="150.0" x2="313.9" y2="150.0" stroke="rgb(0,0,0)"  stroke-width="1.0"/>
<line x1="311.6" y1="143.7" x2="314.5" y2="143.7" stroke="rgb(0,0,0)"  stroke-width="1.0"/>
<line x1="311.0" y1="137.4" x2="315.1" y2="137.4" stroke="rgb(0,0,0)"  stroke-width="1.0"/>
<line x1="310.3" y1="131.1" x2="315.8" y2="131.1" stroke="rgb(0,0,0)"  stroke-width="1.0"/>
<line x1="309.7" y1="124.9" x2="316.4" y2="124.9" stroke="rgb(0,0,0)"  stroke-width="1.0"/>
<line x1="309.1" y1="118.6" x2="317.1" y2="118.6" stroke="rgb(0,0,0)"  stroke-width="1.0"/>
<line x1="313.1" y1="157.9" x2="335.2" y2="170.9" stroke="rgb(0,0,0)"  stroke-width="1.0"/>
<line x1="313.1" y1="118.6" x2="279.7" y2="98.9" stroke="rgb(0,0,0)"  stroke-width="1.0"/>
<line x1="357.7" y1="170.9" x2="379.8" y2="157.9" stroke="rgb(0,0,0)"  stroke-width="1.0"/>
<line x1="379.8" y1="157.9" x2="403.8" y2="171.2" stroke="rgb(0,0,0)"  stroke-width="1.0"/>
<line x1="376.8" y1="157.9" x2="376.8" y2="131.6" stroke="rgb(0,0,0)"  stroke-width="1.0"/>
<line x1="382.8" y1="157.9" x2="382.8" y2="131.6" stroke="rgb(0,0,0)"  stroke-width="1.0"/>
<line x1="210.9" y1="190.5" x2="210.9" y2="246.3" stroke="rgb(0,0,0)"  stroke-width="1.0"/>
<line x1="279.7" y1="177.5" x2="278.3" y2="203.8" stroke="rgb(0,0,0)"  stroke-width="1.0"/>
<line x1="184.6" y1="146.5" x2="193.7" y2="137.4" stroke="rgb(0,0,0)"  stroke-width="1.0"/>
<line x1="188.8" y1="150.8" x2="197.9" y2="141.7" stroke="rgb(0,0,0)"  stroke-width="1.0"/>
<line x1="166.2" y1="150.8" x2="157.1" y2="141.7" stroke="rgb(0,0,0)"  stroke-width="1.0"/>
<line x1="170.4" y1="146.5" x2="161.3" y2="137.4" stroke="rgb(0,0,0)"  stroke-width="1.0"/>
<polygon points="448.596673 159.829251 428.093535 175.208718 424.350707 168.138270 " stroke-width="1.000000" fill="rgb(0,0,0)"  stroke="rgb(0,0,0)" />
<line x1="511.7" y1="135.2" x2="513.0" y2="136.1" stroke="rgb(0,0,0)"  stroke-width="1.0"/>
<line x1="513.8" y1="131.2" x2="516.1" y2="132.9" stroke="rgb(0,0,0)"  stroke-width="1.0"/>
<line x1="515.9" y1="127.2" x2="519.2" y2="129.6" stroke="rgb(0,0,0)"  stroke-width="1.0"/>
<line x1="518.0" y1="123.2" x2="522.4" y2="126.4" stroke="rgb(0,0,0)"  stroke-width="1.0"/>
<line x1="520.1" y1="119.2" x2="525.5" y2="123.1" stroke="rgb(0,0,0)"  stroke-width="1.0"/>
<line x1="522.2" y1="115.2" x2="528.7" y2="119.9" stroke="rgb(0,0,0)"  stroke-width="1.0"/>
<line x1="483.8" y1="176.6" x2="482.5" y2="175.7" stroke="rgb(0,0,0)"  stroke-width="1.0"/>
<line x1="481.9" y1="180.5" x2="479.6" y2="178.9" stroke="rgb(0,0,0)"  stroke-width="1.0"/>
<line x1="480.1" y1="184.4" x2="476.6" y2="182.1" stroke="rgb(0,0,0)"  stroke-width="1.0"/>
<line x1="478.2" y1="188.4" x2="473.7" y2="185.3" stroke="rgb(0,0,0)"  stroke-width="1.0"/>
<line x1="476.3" y1="192.3" x2="470.7" y2="188.6" stroke="rgb(0,0,0)"  stroke-width="1.0"/>
<line x1="474.4" y1="196.3" x2="467.8" y2="191.8" stroke="rgb(0,0,0)"  stroke-width="1.0"/>
<line x1="75.4" y1="216.8" x2="51.4" y2="230.1" stroke="rgb(0,0,0)"  stroke-width="1.0"/>
<line x1="210.9" y1="246.3" x2="245.0" y2="264.9" stroke="rgb(0,0,0)"  stroke-width="1.0"/>
<line x1="245.0" y1="264.9" x2="245.0" y2="291.2" stroke="rgb(0,0,0)"  stroke-width="1.0"/>
<line x1="245.0" y1="264.9" x2="268.0" y2="251.2" stroke="rgb(0,0,0)"  stroke-width="1.0"/>
<line x1="448.6" y1="159.8" x2="486.2" y2="171.6" stroke="rgb(0,0,0)"  stroke-width="1.0"/>
<line x1="486.2" y1="171.6" x2="509.0" y2="140.1" stroke="rgb(0,0,0)"  stroke-width="1.0"/>
<line x1="509.0" y1="140.1" x2="493.6" y2="118.6" stroke="rgb(0,0,0)"  stroke-width="1.0"/>
<line x1="473.6" y1="111.9" x2="448.1" y2="120.0" stroke="rgb(0,0,0)"  stroke-width="1.0"/>
<line x1="448.1" y1="120.0" x2="448.6" y2="159.8" stroke="rgb(0,0,0)"  stroke-width="1.0"/>
<line x1="546.7" y1="189.5" x2="546.7" y2="165.0" stroke="rgb(0,0,0)"  stroke-width="1.0"/>
<line x1="534.3" y1="148.1" x2="509.0" y2="140.1" stroke="rgb(0,0,0)"  stroke-width="1.0"/>
<line x1="486.2" y1="171.6" x2="511.1" y2="203.5" stroke="rgb(0,0,0)"  stroke-width="1.0"/>
<line x1="511.1" y1="203.5" x2="546.7" y2="189.5" stroke="rgb(0,0,0)"  stroke-width="1.0"/>
<line x1="279.7" y1="98.9" x2="279.7" y2="59.6" stroke="rgb(0,0,0)"  stroke-width="1.0"/>
<line x1="279.7" y1="59.6" x2="244.3" y2="40.0" stroke="rgb(0,0,0)"  stroke-width="1.0"/>
<line x1="270.9" y1="63.0" x2="246.0" y2="49.2" stroke="rgb(0,0,0)"  stroke-width="1.0"/>
<line x1="244.3" y1="40.0" x2="210.9" y2="59.6" stroke="rgb(0,0,0)"  stroke-width="1.0"/>
<line x1="210.9" y1="59.6" x2="210.9" y2="98.9" stroke="rgb(0,0,0)"  stroke-width="1.0"/>
<line x1="218.1" y1="65.6" x2="218.1" y2="92.9" stroke="rgb(0,0,0)"  stroke-width="1.0"/>
<line x1="210.9" y1="98.9" x2="244.3" y2="118.6" stroke="rgb(0,0,0)"  stroke-width="1.0"/>
<line x1="244.3" y1="118.6" x2="279.7" y2="98.9" stroke="rgb(0,0,0)"  stroke-width="1.0"/>
<line x1="246.0" y1="109.4" x2="270.9" y2="95.6" stroke="rgb(0,0,0)"  stroke-width="1.0"/>
<line x1="142.1" y1="177.5" x2="142.1" y2="216.8" stroke="rgb(0,0,0)"  stroke-width="1.0"/>
<line x1="134.9" y1="183.5" x2="134.9" y2="210.8" stroke="rgb(0,0,0)"  stroke-width="1.0"/>
<line x1="142.1" y1="216.8" x2="108.8" y2="236.4" stroke="rgb(0,0,0)"  stroke-width="1.0"/>
<line x1="108.8" y1="236.4" x2="75.4" y2="216.8" stroke="rgb(0,0,0)"  stroke-width="1.0"/>
<line x1="107.2" y1="227.2" x2="84.2" y2="213.6" stroke="rgb(0,0,0)"  stroke-width="1.0"/>
<line x1="75.4" y1="216.8" x2="75.4" y2="177.5" stroke="rgb(0,0,0)"  stroke-width="1.0"/>
<line x1="75.4" y1="177.5" x2="108.8" y2="157.9" stroke="rgb(0,0,0)"  stroke-width="1.0"/>
<line x1="84.2" y1="180.7" x2="107.2" y2="167.1" stroke="rgb(0,0,0)"  stroke-width="1.0"/>
<line x1="108.8" y1="157.9" x2="142.1" y2="177.5" stroke="rgb(0,0,0)"  stroke-width="1.0"/>
<text x="204.902079" y="185.507226" fill="rgb(12,12,255)"  stroke="rgb(12,12,255)" stroke-width="1" font-size="16" >N</text>
<text x="171.507226" y="165.862534" fill="rgb(178,178,0)"  stroke="rgb(178,178,0)" stroke-width="1" font-size="16" >S</text>
<text x="340.445397" y="185.507226" fill="rgb(12,12,255)"  stroke="rgb(12,12,255)" stroke-width="1" font-size="16" >N</text>
<text x="340.445397" y="201.507226" fill="rgb(12,12,255)"  stroke="rgb(12,12,255)" stroke-width="1" font-size="16" >H</text>
<text x="409.201820" y="185.507226" fill="rgb(255,12,12)"  stroke="rgb(255,12,12)" stroke-width="1" font-size="16" >O</text>
<text x="373.840250" y="126.575959" fill="rgb(255,12,12)"  stroke="rgb(255,12,12)" stroke-width="1" font-size="16" >O</text>
<text x="259.691784" y="224.796610" fill="rgb(255,12,12)"  stroke="rgb(255,12,12)" stroke-width="1" font-size="16" >HO</text>
<text x="199.010357" y="138.362212" fill="rgb(255,12,12)"  stroke="rgb(255,12,12)" stroke-width="1" font-size="16" >O</text>
<text x="144.006905" y="138.362212" fill="rgb(255,12,12)"  stroke="rgb(255,12,12)" stroke-width="1" font-size="16" >O</text>
<text x="480.006437" y="116.009070" fill="rgb(255,12,12)"  stroke="rgb(255,12,12)" stroke-width="1" font-size="16" >O</text>
<text x="540.724607" y="160.049480" fill="rgb(255,12,12)"  stroke="rgb(255,12,12)" stroke-width="1" font-size="16" >O</text>
<text x="527.491412" y="114.416029" fill="rgb(191,191,191)"  stroke="rgb(191,191,191)" stroke-width="1" font-size="16" >H</text>
<text x="457.661724" y="213.055310" fill="rgb(191,191,191)"  stroke="rgb(191,191,191)" stroke-width="1" font-size="16" >H</text>
<text x="14.000000" y="244.441302" fill="rgb(12,12,255)"  stroke="rgb(12,12,255)" stroke-width="1" font-size="16" >H</text>
<text x="26.000000" y="248.121302" fill="rgb(12,12,255)"  stroke="rgb(12,12,255)" stroke-width="1" font-size="13" >2</text>
<text x="32.500000" y="244.441302" fill="rgb(12,12,255)"  stroke="rgb(12,12,255)" stroke-width="1" font-size="16" >N</text>
<text x="240.996521" y="312.194699" fill="rgb(102,102,102)"  stroke="rgb(102,102,102)" stroke-width="1" font-size="16" >CH</text>
<text x="264.996521" y="315.874699" fill="rgb(102,102,102)"  stroke="rgb(102,102,102)" stroke-width="1" font-size="13" >3</text>
<text x="275.161203" y="252.561033" fill="rgb(102,102,102)"  stroke="rgb(102,102,102)" stroke-width="1" font-size="16" >CH</text>
<text x="299.161203" y="256.241033" fill="rgb(102,102,102)"  stroke="rgb(102,102,102)" stroke-width="1" font-size="13" >3</text>
<text font-size="18.000000" fill ="black" font-family="sans-serif"
x="10.000000" y="20.000000" ></text>
<title> - OBDepict</title>
</svg>
