<?xml version="1.0"?>
<svg xmlns="http://www.w3.org/2000/svg"
xmlns:xlink="http://www.w3.org/1999/xlink" xmlns:cml="http://www.xml-cml.org/schema" width="272.735" height="254.926" x="0" y="0" font-family="sans-serif" stroke="rgb(0,0,0)" stroke-width="1"  stroke-linecap="round">
<rect x="0%" y="0%" width="100%" height="100%" stroke-width="0" fill="rgb(255,255,255)"  />
<line x1="221.5" y1="104.8" x2="194.2" y2="120.6" stroke="rgb(0,0,0)"  stroke-width="1.0"/>
<line x1="88.3" y1="178.2" x2="115.6" y2="162.5" stroke="rgb(0,0,0)"  stroke-width="1.0"/>
<line x1="91.3" y1="183.4" x2="118.6" y2="167.7" stroke="rgb(0,0,0)"  stroke-width="1.0"/>
<line x1="49.8" y1="111.5" x2="77.0" y2="95.7" stroke="rgb(0,0,0)"  stroke-width="1.0"/>
<line x1="52.8" y1="116.7" x2="80.0" y2="100.9" stroke="rgb(0,0,0)"  stroke-width="1.0"/>
<line x1="155.6" y1="200.3" x2="155.6" y2="201.9" stroke="rgb(0,0,0)"  stroke-width="1.0"/>
<line x1="78.5" y1="66.8" x2="78.5" y2="98.3" stroke="rgb(0,0,0)"  stroke-width="1.0"/>
<line x1="67.3" y1="47.3" x2="65.9" y2="46.5" stroke="rgb(0,0,0)"  stroke-width="1.0"/>
<line x1="89.8" y1="47.3" x2="91.2" y2="46.5" stroke="rgb(0,0,0)"  stroke-width="1.0"/>
<line x1="117.1" y1="120.6" x2="78.5" y2="98.3" stroke="rgb(0,0,0)"  stroke-width="1.0"/>
<line x1="194.2" y1="165.1" x2="206.8" y2="172.4" stroke="rgb(0,0,0)"  stroke-width="1.0"/>
<line x1="166.9" y1="104.8" x2="194.2" y2="120.6" stroke="rgb(0,0,0)"  stroke-width="1.0"/>
<line x1="194.2" y1="120.6" x2="194.2" y2="165.1" stroke="rgb(0,0,0)"  stroke-width="1.0"/>
<line x1="187.0" y1="126.6" x2="187.0" y2="159.1" stroke="rgb(0,0,0)"  stroke-width="1.0"/>
<line x1="194.2" y1="165.1" x2="166.9" y2="180.8" stroke="rgb(0,0,0)"  stroke-width="1.0"/>
<line x1="144.4" y1="180.8" x2="117.1" y2="165.1" stroke="rgb(0,0,0)"  stroke-width="1.0"/>
<line x1="117.1" y1="165.1" x2="117.1" y2="120.6" stroke="rgb(0,0,0)"  stroke-width="1.0"/>
<line x1="117.1" y1="120.6" x2="142.9" y2="105.7" stroke="rgb(0,0,0)"  stroke-width="1.0"/>
<line x1="125.9" y1="123.8" x2="145.2" y2="112.7" stroke="rgb(0,0,0)"  stroke-width="1.0"/>
<text x="226.734551" y="106.308645" fill="rgb(127,178,255)"  stroke="rgb(127,178,255)" stroke-width="1" font-size="16" >F</text>
<text x="72.546020" y="195.329476" fill="rgb(255,12,12)"  stroke="rgb(255,12,12)" stroke-width="1" font-size="16" >O</text>
<text x="34.000000" y="128.563852" fill="rgb(255,12,12)"  stroke="rgb(255,12,12)" stroke-width="1" font-size="16" >O</text>
<text x="149.642511" y="195.329476" fill="rgb(12,12,255)"  stroke="rgb(12,12,255)" stroke-width="1" font-size="16" >N</text>
<text x="149.642511" y="106.308645" fill="rgb(12,12,255)"  stroke="rgb(12,12,255)" stroke-width="1" font-size="16" >N</text>
<text x="72.546020" y="61.798229" fill="rgb(12,12,255)"  stroke="rgb(12,12,255)" stroke-width="1" font-size="16" >N</text>
<text x="149.642511" y="222.925934" fill="rgb(191,191,191)"  stroke="rgb(191,191,191)" stroke-width="1" font-size="16" >H</text>
<text x="212.086173" y="186.872497" fill="rgb(191,191,191)"  stroke="rgb(191,191,191)" stroke-width="1" font-size="16" >H</text>
<text x="48.648378" y="48.000000" fill="rgb(191,191,191)"  stroke="rgb(191,191,191)" stroke-width="1" font-size="16" >H</text>
<text x="96.448113" y="48.000000" fill="rgb(191,191,191)"  stroke="rgb(191,191,191)" stroke-width="1" font-size="16" >H</text>
<text font-size="18.000000" fill ="black" font-family="sans-serif"
x="10.000000" y="20.000000" >492405</text>
<title>492405 - OBDepict</title>
</svg>
