<?xml version="1.0"?>
<svg xmlns="http://www.w3.org/2000/svg"
xmlns:xlink="http://www.w3.org/1999/xlink" xmlns:cml="http://www.xml-cml.org/schema" width="597.633" height="221.081" x="0" y="0" font-family="sans-serif" stroke="rgb(0,0,0)" stroke-width="1"  stroke-linecap="round">
<rect x="0%" y="0%" width="100%" height="100%" stroke-width="0" fill="rgb(255,255,255)"  />
<line x1="384.8" y1="120.6" x2="420.3" y2="100.1" stroke="rgb(0,0,0)"  stroke-width="1.0"/>
<line x1="420.3" y1="100.1" x2="455.0" y2="120.2" stroke="rgb(0,0,0)"  stroke-width="1.0"/>
<line x1="455.0" y1="120.2" x2="489.0" y2="100.5" stroke="rgb(0,0,0)"  stroke-width="1.0"/>
<line x1="489.0" y1="100.5" x2="523.4" y2="120.3" stroke="rgb(0,0,0)"  stroke-width="1.0"/>
<line x1="523.4" y1="120.3" x2="546.4" y2="107.1" stroke="rgb(0,0,0)"  stroke-width="1.0"/>
<line x1="489.0" y1="100.5" x2="465.4" y2="86.8" stroke="rgb(0,0,0)"  stroke-width="1.0"/>
<line x1="489.0" y1="100.5" x2="524.0" y2="80.3" stroke="rgb(0,0,0)"  stroke-width="1.0"/>
<line x1="524.0" y1="80.3" x2="524.0" y2="53.0" stroke="rgb(0,0,0)"  stroke-width="1.0"/>
<line x1="315.0" y1="160.9" x2="280.0" y2="181.1" stroke="rgb(0,0,0)"  stroke-width="1.0"/>
<line x1="280.0" y1="181.1" x2="245.6" y2="161.2" stroke="rgb(0,0,0)"  stroke-width="1.0"/>
<line x1="245.6" y1="161.2" x2="211.4" y2="180.9" stroke="rgb(0,0,0)"  stroke-width="1.0"/>
<line x1="211.4" y1="180.9" x2="177.1" y2="161.1" stroke="rgb(0,0,0)"  stroke-width="1.0"/>
<line x1="177.1" y1="161.1" x2="142.8" y2="180.9" stroke="rgb(0,0,0)"  stroke-width="1.0"/>
<line x1="142.8" y1="180.9" x2="108.5" y2="161.1" stroke="rgb(0,0,0)"  stroke-width="1.0"/>
<line x1="108.5" y1="161.1" x2="74.3" y2="180.9" stroke="rgb(0,0,0)"  stroke-width="1.0"/>
<line x1="74.3" y1="180.9" x2="51.3" y2="167.6" stroke="rgb(0,0,0)"  stroke-width="1.0"/>
<line x1="315.0" y1="120.6" x2="315.0" y2="160.9" stroke="rgb(0,0,0)"  stroke-width="1.0"/>
<line x1="322.2" y1="126.6" x2="322.2" y2="154.9" stroke="rgb(0,0,0)"  stroke-width="1.0"/>
<line x1="315.0" y1="160.9" x2="349.9" y2="181.1" stroke="rgb(0,0,0)"  stroke-width="1.0"/>
<line x1="349.9" y1="181.1" x2="384.8" y2="160.9" stroke="rgb(0,0,0)"  stroke-width="1.0"/>
<line x1="351.5" y1="171.8" x2="376.0" y2="157.7" stroke="rgb(0,0,0)"  stroke-width="1.0"/>
<line x1="384.8" y1="160.9" x2="384.8" y2="120.6" stroke="rgb(0,0,0)"  stroke-width="1.0"/>
<line x1="384.8" y1="120.6" x2="349.9" y2="100.4" stroke="rgb(0,0,0)"  stroke-width="1.0"/>
<line x1="376.0" y1="123.8" x2="351.5" y2="109.7" stroke="rgb(0,0,0)"  stroke-width="1.0"/>
<line x1="349.9" y1="100.4" x2="315.0" y2="120.6" stroke="rgb(0,0,0)"  stroke-width="1.0"/>
<text x="551.633351" y="108.581715" fill="rgb(255,12,12)"  stroke="rgb(255,12,12)" stroke-width="1" font-size="16" >OH</text>
<text x="428.106105" y="88.324443" fill="rgb(12,12,255)"  stroke="rgb(12,12,255)" stroke-width="1" font-size="16" >H</text>
<text x="440.106105" y="92.004443" fill="rgb(12,12,255)"  stroke="rgb(12,12,255)" stroke-width="1" font-size="13" >2</text>
<text x="446.606105" y="88.324443" fill="rgb(12,12,255)"  stroke="rgb(12,12,255)" stroke-width="1" font-size="16" >N</text>
<text x="517.950920" y="48.000000" fill="rgb(255,12,12)"  stroke="rgb(255,12,12)" stroke-width="1" font-size="16" >OH</text>
<text x="14.000000" y="169.100062" fill="rgb(102,102,102)"  stroke="rgb(102,102,102)" stroke-width="1" font-size="16" >H</text>
<text x="26.000000" y="172.780062" fill="rgb(102,102,102)"  stroke="rgb(102,102,102)" stroke-width="1" font-size="13" >3</text>
<text x="32.500000" y="169.100062" fill="rgb(102,102,102)"  stroke="rgb(102,102,102)" stroke-width="1" font-size="16" >C</text>
<text font-size="18.000000" fill ="black" font-family="sans-serif"
x="10.000000" y="20.000000" ></text>
<title> - OBDepict</title>
</svg>
