<?xml version="1.0"?>
<svg xmlns="http://www.w3.org/2000/svg"
xmlns:xlink="http://www.w3.org/1999/xlink" xmlns:cml="http://www.xml-cml.org/schema" width="492.553" height="280.269" x="0" y="0" font-family="sans-serif" stroke="rgb(0,0,0)" stroke-width="1"  stroke-linecap="round">
<rect x="0%" y="0%" width="100%" height="100%" stroke-width="0" fill="rgb(255,255,255)"  />
<line x1="74.0" y1="220.2" x2="51.2" y2="233.7" stroke="rgb(0,0,0)"  stroke-width="1.0"/>
<line x1="178.2" y1="160.2" x2="178.2" y2="133.1" stroke="rgb(0,0,0)"  stroke-width="1.0"/>
<line x1="189.5" y1="113.8" x2="214.2" y2="100.1" stroke="rgb(0,0,0)"  stroke-width="1.0"/>
<line x1="214.2" y1="100.1" x2="248.3" y2="120.1" stroke="rgb(0,0,0)"  stroke-width="1.0"/>
<line x1="214.2" y1="100.1" x2="214.2" y2="73.0" stroke="rgb(0,0,0)"  stroke-width="1.0"/>
<line x1="248.3" y1="120.1" x2="282.3" y2="100.1" stroke="rgb(0,0,0)"  stroke-width="1.0"/>
<line x1="282.3" y1="100.1" x2="316.4" y2="120.1" stroke="rgb(0,0,0)"  stroke-width="1.0"/>
<line x1="316.4" y1="120.1" x2="339.2" y2="106.7" stroke="rgb(0,0,0)"  stroke-width="1.0"/>
<line x1="361.6" y1="106.7" x2="384.5" y2="120.1" stroke="rgb(0,0,0)"  stroke-width="1.0"/>
<line x1="384.5" y1="120.1" x2="418.5" y2="100.1" stroke="rgb(0,0,0)"  stroke-width="1.0"/>
<line x1="418.5" y1="100.1" x2="441.3" y2="113.5" stroke="rgb(0,0,0)"  stroke-width="1.0"/>
<line x1="350.4" y1="87.1" x2="350.4" y2="60.0" stroke="rgb(0,0,0)"  stroke-width="1.0"/>
<line x1="350.4" y1="60.0" x2="373.3" y2="46.6" stroke="rgb(0,0,0)"  stroke-width="1.0"/>
<line x1="74.0" y1="180.2" x2="74.0" y2="220.2" stroke="rgb(0,0,0)"  stroke-width="1.0"/>
<line x1="81.2" y1="186.2" x2="81.2" y2="214.2" stroke="rgb(0,0,0)"  stroke-width="1.0"/>
<line x1="74.0" y1="220.2" x2="108.1" y2="240.3" stroke="rgb(0,0,0)"  stroke-width="1.0"/>
<line x1="108.1" y1="240.3" x2="144.1" y2="220.2" stroke="rgb(0,0,0)"  stroke-width="1.0"/>
<line x1="109.8" y1="231.1" x2="135.4" y2="216.9" stroke="rgb(0,0,0)"  stroke-width="1.0"/>
<line x1="144.1" y1="220.2" x2="144.1" y2="180.2" stroke="rgb(0,0,0)"  stroke-width="1.0"/>
<line x1="144.1" y1="180.2" x2="108.1" y2="160.2" stroke="rgb(0,0,0)"  stroke-width="1.0"/>
<line x1="135.4" y1="183.6" x2="109.8" y2="169.4" stroke="rgb(0,0,0)"  stroke-width="1.0"/>
<line x1="108.1" y1="160.2" x2="74.0" y2="180.2" stroke="rgb(0,0,0)"  stroke-width="1.0"/>
<line x1="167.0" y1="233.7" x2="144.1" y2="220.2" stroke="rgb(0,0,0)"  stroke-width="1.0"/>
<line x1="144.1" y1="180.2" x2="178.2" y2="160.2" stroke="rgb(0,0,0)"  stroke-width="1.0"/>
<line x1="178.2" y1="160.2" x2="214.2" y2="180.2" stroke="rgb(0,0,0)"  stroke-width="1.0"/>
<line x1="179.9" y1="169.4" x2="205.5" y2="183.6" stroke="rgb(0,0,0)"  stroke-width="1.0"/>
<line x1="214.2" y1="180.2" x2="214.2" y2="220.2" stroke="rgb(0,0,0)"  stroke-width="1.0"/>
<line x1="214.2" y1="220.2" x2="190.1" y2="233.7" stroke="rgb(0,0,0)"  stroke-width="1.0"/>
<line x1="205.5" y1="216.9" x2="188.2" y2="226.5" stroke="rgb(0,0,0)"  stroke-width="1.0"/>
<text x="172.185289" y="248.268535" fill="rgb(12,12,255)"  stroke="rgb(12,12,255)" stroke-width="1" font-size="16" >N</text>
<text x="22.000000" y="248.268535" fill="rgb(30,239,30)"  stroke="rgb(30,239,30)" stroke-width="1" font-size="16" >Cl</text>
<text x="160.185289" y="128.107414" fill="rgb(12,12,255)"  stroke="rgb(12,12,255)" stroke-width="1" font-size="16" >HN</text>
<text x="210.233626" y="68.026854" fill="rgb(102,102,102)"  stroke="rgb(102,102,102)" stroke-width="1" font-size="16" >CH</text>
<text x="234.233626" y="71.706854" fill="rgb(102,102,102)"  stroke="rgb(102,102,102)" stroke-width="1" font-size="13" >3</text>
<text x="344.416230" y="108.080561" fill="rgb(12,12,255)"  stroke="rgb(12,12,255)" stroke-width="1" font-size="16" >N</text>
<text x="446.553183" y="128.107414" fill="rgb(255,12,12)"  stroke="rgb(255,12,12)" stroke-width="1" font-size="16" >OH</text>
<text x="380.461881" y="48.000000" fill="rgb(102,102,102)"  stroke="rgb(102,102,102)" stroke-width="1" font-size="16" >CH</text>
<text x="404.461881" y="51.680000" fill="rgb(102,102,102)"  stroke="rgb(102,102,102)" stroke-width="1" font-size="13" >3</text>
<text font-size="18.000000" fill ="black" font-family="sans-serif"
x="10.000000" y="20.000000" ></text>
<title> - OBDepict</title>
</svg>
