<?xml version="1.0"?>
<svg xmlns="http://www.w3.org/2000/svg"
xmlns:xlink="http://www.w3.org/1999/xlink" xmlns:cml="http://www.xml-cml.org/schema" width="629.868" height="362.033" x="0" y="0" font-family="sans-serif" stroke="rgb(0,0,0)" stroke-width="1"  stroke-linecap="round">
<rect x="0%" y="0%" width="100%" height="100%" stroke-width="0" fill="rgb(255,255,255)"  />
<line x1="354.3" y1="161.3" x2="353.5" y2="162.7" stroke="rgb(0,0,0)"  stroke-width="1.0"/>
<line x1="358.3" y1="162.9" x2="356.9" y2="165.4" stroke="rgb(0,0,0)"  stroke-width="1.0"/>
<line x1="362.3" y1="164.5" x2="360.2" y2="168.1" stroke="rgb(0,0,0)"  stroke-width="1.0"/>
<line x1="366.3" y1="166.1" x2="363.6" y2="170.8" stroke="rgb(0,0,0)"  stroke-width="1.0"/>
<line x1="370.3" y1="167.7" x2="366.9" y2="173.5" stroke="rgb(0,0,0)"  stroke-width="1.0"/>
<line x1="374.3" y1="169.2" x2="370.3" y2="176.2" stroke="rgb(0,0,0)"  stroke-width="1.0"/>
<line x1="555.5" y1="159.5" x2="555.5" y2="132.7" stroke="rgb(0,0,0)"  stroke-width="1.0"/>
<line x1="521.1" y1="219.0" x2="497.8" y2="232.3" stroke="rgb(0,0,0)"  stroke-width="1.0"/>
<line x1="349.3" y1="159.4" x2="314.9" y2="179.3" stroke="rgb(0,0,0)"  stroke-width="1.0"/>
<line x1="415.0" y1="159.4" x2="415.0" y2="132.6" stroke="rgb(0,0,0)"  stroke-width="1.0"/>
<line x1="421.0" y1="159.4" x2="421.0" y2="132.6" stroke="rgb(0,0,0)"  stroke-width="1.0"/>
<line x1="266.2" y1="253.4" x2="246.2" y2="219.1" stroke="rgb(0,0,0)"  stroke-width="1.0"/>
<line x1="349.3" y1="159.4" x2="349.3" y2="119.6" stroke="rgb(0,0,0)"  stroke-width="1.0"/>
<polygon points="314.934035 179.269367 278.571835 162.835260 282.580775 155.912226 " stroke-width="1.000000" fill="rgb(0,0,0)"  stroke="rgb(0,0,0)" />
<line x1="349.3" y1="119.6" x2="314.8" y2="99.7" stroke="rgb(0,0,0)"  stroke-width="1.0"/>
<line x1="252.7" y1="174.6" x2="253.5" y2="176.0" stroke="rgb(0,0,0)"  stroke-width="1.0"/>
<line x1="257.9" y1="170.9" x2="259.3" y2="173.4" stroke="rgb(0,0,0)"  stroke-width="1.0"/>
<line x1="263.0" y1="167.1" x2="265.1" y2="170.7" stroke="rgb(0,0,0)"  stroke-width="1.0"/>
<line x1="268.2" y1="163.4" x2="270.9" y2="168.1" stroke="rgb(0,0,0)"  stroke-width="1.0"/>
<line x1="273.4" y1="159.6" x2="276.8" y2="165.5" stroke="rgb(0,0,0)"  stroke-width="1.0"/>
<line x1="278.6" y1="155.9" x2="282.6" y2="162.8" stroke="rgb(0,0,0)"  stroke-width="1.0"/>
<line x1="246.2" y1="179.3" x2="223.1" y2="165.9" stroke="rgb(0,0,0)"  stroke-width="1.0"/>
<line x1="521.1" y1="179.3" x2="498.0" y2="165.9" stroke="rgb(0,0,0)"  stroke-width="1.0"/>
<line x1="314.9" y1="179.3" x2="315.0" y2="205.9" stroke="rgb(0,0,0)"  stroke-width="1.0"/>
<line x1="246.2" y1="179.3" x2="246.2" y2="219.1" stroke="rgb(0,0,0)"  stroke-width="1.0"/>
<line x1="200.6" y1="165.9" x2="177.5" y2="179.3" stroke="rgb(0,0,0)"  stroke-width="1.0"/>
<line x1="180.5" y1="179.3" x2="180.5" y2="206.1" stroke="rgb(0,0,0)"  stroke-width="1.0"/>
<line x1="174.5" y1="179.3" x2="174.5" y2="206.1" stroke="rgb(0,0,0)"  stroke-width="1.0"/>
<polygon points="143.135757 159.373743 179.497957 175.807850 175.489017 182.730884 " stroke-width="1.000000" fill="rgb(0,0,0)"  stroke="rgb(0,0,0)" />
<line x1="143.1" y1="159.4" x2="143.1" y2="105.7" stroke="rgb(0,0,0)"  stroke-width="1.0"/>
<line x1="475.5" y1="165.9" x2="452.4" y2="179.3" stroke="rgb(0,0,0)"  stroke-width="1.0"/>
<line x1="143.1" y1="105.7" x2="119.9" y2="92.3" stroke="rgb(0,0,0)"  stroke-width="1.0"/>
<line x1="143.1" y1="159.4" x2="120.0" y2="172.8" stroke="rgb(0,0,0)"  stroke-width="1.0"/>
<line x1="143.1" y1="105.7" x2="166.3" y2="92.3" stroke="rgb(0,0,0)"  stroke-width="1.0"/>
<line x1="452.4" y1="179.3" x2="418.0" y2="159.4" stroke="rgb(0,0,0)"  stroke-width="1.0"/>
<line x1="418.0" y1="159.4" x2="394.9" y2="172.8" stroke="rgb(0,0,0)"  stroke-width="1.0"/>
<line x1="71.4" y1="159.5" x2="71.3" y2="132.7" stroke="rgb(0,0,0)"  stroke-width="1.0"/>
<line x1="77.4" y1="159.5" x2="77.3" y2="132.7" stroke="rgb(0,0,0)"  stroke-width="1.0"/>
<line x1="521.1" y1="179.3" x2="555.5" y2="159.5" stroke="rgb(0,0,0)"  stroke-width="1.0"/>
<line x1="529.9" y1="182.5" x2="553.9" y2="168.7" stroke="rgb(0,0,0)"  stroke-width="1.0"/>
<line x1="555.5" y1="159.5" x2="589.9" y2="179.4" stroke="rgb(0,0,0)"  stroke-width="1.0"/>
<line x1="589.9" y1="179.4" x2="589.8" y2="219.1" stroke="rgb(0,0,0)"  stroke-width="1.0"/>
<line x1="582.7" y1="185.3" x2="582.6" y2="213.0" stroke="rgb(0,0,0)"  stroke-width="1.0"/>
<line x1="589.8" y1="219.1" x2="555.4" y2="238.9" stroke="rgb(0,0,0)"  stroke-width="1.0"/>
<line x1="555.4" y1="238.9" x2="521.1" y2="219.0" stroke="rgb(0,0,0)"  stroke-width="1.0"/>
<line x1="553.8" y1="229.6" x2="529.9" y2="215.7" stroke="rgb(0,0,0)"  stroke-width="1.0"/>
<line x1="521.1" y1="219.0" x2="521.1" y2="179.3" stroke="rgb(0,0,0)"  stroke-width="1.0"/>
<line x1="314.8" y1="99.7" x2="280.6" y2="119.6" stroke="rgb(0,0,0)"  stroke-width="1.0"/>
<line x1="306.0" y1="96.5" x2="282.2" y2="110.3" stroke="rgb(0,0,0)"  stroke-width="1.0"/>
<line x1="280.6" y1="119.6" x2="246.2" y2="99.7" stroke="rgb(0,0,0)"  stroke-width="1.0"/>
<line x1="246.2" y1="99.7" x2="246.2" y2="59.9" stroke="rgb(0,0,0)"  stroke-width="1.0"/>
<line x1="253.4" y1="93.7" x2="253.4" y2="65.9" stroke="rgb(0,0,0)"  stroke-width="1.0"/>
<line x1="246.2" y1="59.9" x2="280.6" y2="40.0" stroke="rgb(0,0,0)"  stroke-width="1.0"/>
<line x1="280.6" y1="40.0" x2="315.1" y2="59.9" stroke="rgb(0,0,0)"  stroke-width="1.0"/>
<line x1="282.2" y1="49.2" x2="306.3" y2="63.1" stroke="rgb(0,0,0)"  stroke-width="1.0"/>
<line x1="315.1" y1="59.9" x2="314.8" y2="99.7" stroke="rgb(0,0,0)"  stroke-width="1.0"/>
<line x1="325.7" y1="287.5" x2="306.0" y2="321.9" stroke="rgb(0,0,0)"  stroke-width="1.0"/>
<line x1="316.5" y1="289.2" x2="302.8" y2="313.1" stroke="rgb(0,0,0)"  stroke-width="1.0"/>
<line x1="306.0" y1="321.9" x2="266.4" y2="322.0" stroke="rgb(0,0,0)"  stroke-width="1.0"/>
<line x1="266.4" y1="322.0" x2="246.5" y2="287.8" stroke="rgb(0,0,0)"  stroke-width="1.0"/>
<line x1="269.6" y1="313.2" x2="255.8" y2="289.4" stroke="rgb(0,0,0)"  stroke-width="1.0"/>
<line x1="246.5" y1="287.8" x2="266.2" y2="253.4" stroke="rgb(0,0,0)"  stroke-width="1.0"/>
<line x1="266.2" y1="253.4" x2="305.8" y2="253.3" stroke="rgb(0,0,0)"  stroke-width="1.0"/>
<line x1="272.2" y1="260.6" x2="299.8" y2="260.5" stroke="rgb(0,0,0)"  stroke-width="1.0"/>
<line x1="305.8" y1="253.3" x2="325.7" y2="287.5" stroke="rgb(0,0,0)"  stroke-width="1.0"/>
<line x1="108.8" y1="192.3" x2="108.8" y2="219.0" stroke="rgb(0,0,0)"  stroke-width="1.0"/>
<line x1="108.8" y1="219.0" x2="74.5" y2="238.9" stroke="rgb(0,0,0)"  stroke-width="1.0"/>
<line x1="74.5" y1="238.9" x2="40.0" y2="219.1" stroke="rgb(0,0,0)"  stroke-width="1.0"/>
<line x1="40.0" y1="219.1" x2="40.0" y2="192.4" stroke="rgb(0,0,0)"  stroke-width="1.0"/>
<line x1="51.3" y1="172.8" x2="74.4" y2="159.5" stroke="rgb(0,0,0)"  stroke-width="1.0"/>
<line x1="74.4" y1="159.5" x2="97.5" y2="172.8" stroke="rgb(0,0,0)"  stroke-width="1.0"/>
<text x="480.737127" y="167.373743" fill="rgb(255,12,12)"  stroke="rgb(255,12,12)" stroke-width="1" font-size="16" >O</text>
<text x="377.654309" y="187.269367" fill="rgb(12,12,255)"  stroke="rgb(12,12,255)" stroke-width="1" font-size="16" >N</text>
<text x="377.654309" y="203.269367" fill="rgb(12,12,255)"  stroke="rgb(12,12,255)" stroke-width="1" font-size="16" >H</text>
<text x="205.851218" y="167.373743" fill="rgb(12,12,255)"  stroke="rgb(12,12,255)" stroke-width="1" font-size="16" >N</text>
<text x="205.851218" y="151.373743" fill="rgb(12,12,255)"  stroke="rgb(12,12,255)" stroke-width="1" font-size="16" >H</text>
<text x="102.773213" y="187.269367" fill="rgb(12,12,255)"  stroke="rgb(12,12,255)" stroke-width="1" font-size="16" >N</text>
<text x="551.553654" y="127.673936" fill="rgb(102,102,102)"  stroke="rgb(102,102,102)" stroke-width="1" font-size="16" >CH</text>
<text x="575.553654" y="131.353936" fill="rgb(102,102,102)"  stroke="rgb(102,102,102)" stroke-width="1" font-size="13" >3</text>
<text x="460.573496" y="246.816671" fill="rgb(102,102,102)"  stroke="rgb(102,102,102)" stroke-width="1" font-size="16" >H</text>
<text x="472.573496" y="250.496671" fill="rgb(102,102,102)"  stroke="rgb(102,102,102)" stroke-width="1" font-size="13" >3</text>
<text x="479.073496" y="246.816671" fill="rgb(102,102,102)"  stroke="rgb(102,102,102)" stroke-width="1" font-size="16" >C</text>
<text x="412.016853" y="127.587308" fill="rgb(255,12,12)"  stroke="rgb(255,12,12)" stroke-width="1" font-size="16" >O</text>
<text x="309.068791" y="226.949923" fill="rgb(255,12,12)"  stroke="rgb(255,12,12)" stroke-width="1" font-size="16" >OH</text>
<text x="171.493487" y="227.050989" fill="rgb(255,12,12)"  stroke="rgb(255,12,12)" stroke-width="1" font-size="16" >O</text>
<text x="82.676960" y="93.797474" fill="rgb(102,102,102)"  stroke="rgb(102,102,102)" stroke-width="1" font-size="16" >H</text>
<text x="94.676960" y="97.477474" fill="rgb(102,102,102)"  stroke="rgb(102,102,102)" stroke-width="1" font-size="13" >3</text>
<text x="101.176960" y="93.797474" fill="rgb(102,102,102)"  stroke="rgb(102,102,102)" stroke-width="1" font-size="16" >C</text>
<text x="173.589741" y="93.797474" fill="rgb(102,102,102)"  stroke="rgb(102,102,102)" stroke-width="1" font-size="16" >CH</text>
<text x="197.589741" y="97.477474" fill="rgb(102,102,102)"  stroke="rgb(102,102,102)" stroke-width="1" font-size="13" >3</text>
<text x="22.000000" y="187.351182" fill="rgb(12,12,255)"  stroke="rgb(12,12,255)" stroke-width="1" font-size="16" >HN</text>
<text x="68.319229" y="127.673936" fill="rgb(255,12,12)"  stroke="rgb(255,12,12)" stroke-width="1" font-size="16" >O</text>
<text font-size="18.000000" fill ="black" font-family="sans-serif"
x="10.000000" y="20.000000" ></text>
<title> - OBDepict</title>
</svg>
