<?xml version="1.0"?>
<svg xmlns="http://www.w3.org/2000/svg"
xmlns:xlink="http://www.w3.org/1999/xlink" xmlns:cml="http://www.xml-cml.org/schema" width="668.597" height="291.937" x="0" y="0" font-family="sans-serif" stroke="rgb(0,0,0)" stroke-width="1"  stroke-linecap="round">
<rect x="0%" y="0%" width="100%" height="100%" stroke-width="0" fill="rgb(255,255,255)"  />
<polygon points="481.136 180.199 517.793 164.428 520.202 172.057 " stroke-width="1" fill="rgb(0,0,0)"  stroke="rgb(0,0,0)" />
<line x1="471.3" y1="223.8" x2="470.0" y2="224.8" stroke="rgb(0,0,0)"  stroke-width="1.0"/>
<line x1="474.6" y1="226.8" x2="472.3" y2="228.7" stroke="rgb(0,0,0)"  stroke-width="1.0"/>
<line x1="477.8" y1="229.8" x2="474.6" y2="232.5" stroke="rgb(0,0,0)"  stroke-width="1.0"/>
<line x1="481.1" y1="232.9" x2="476.9" y2="236.3" stroke="rgb(0,0,0)"  stroke-width="1.0"/>
<line x1="484.4" y1="235.9" x2="479.2" y2="240.1" stroke="rgb(0,0,0)"  stroke-width="1.0"/>
<line x1="487.6" y1="238.9" x2="481.4" y2="243.9" stroke="rgb(0,0,0)"  stroke-width="1.0"/>
<line x1="594.7" y1="98.5" x2="594.7" y2="71.6" stroke="rgb(0,0,0)"  stroke-width="1.0"/>
<line x1="425.1" y1="224.8" x2="423.7" y2="223.9" stroke="rgb(0,0,0)"  stroke-width="1.0"/>
<line x1="423.2" y1="228.6" x2="420.9" y2="226.9" stroke="rgb(0,0,0)"  stroke-width="1.0"/>
<line x1="421.4" y1="232.3" x2="418.0" y2="230.0" stroke="rgb(0,0,0)"  stroke-width="1.0"/>
<line x1="419.6" y1="236.1" x2="415.1" y2="233.0" stroke="rgb(0,0,0)"  stroke-width="1.0"/>
<line x1="417.8" y1="239.9" x2="412.2" y2="236.1" stroke="rgb(0,0,0)"  stroke-width="1.0"/>
<line x1="415.9" y1="243.7" x2="409.4" y2="239.1" stroke="rgb(0,0,0)"  stroke-width="1.0"/>
<line x1="481.1" y1="180.2" x2="515.0" y2="200.1" stroke="rgb(0,0,0)"  stroke-width="1.0"/>
<line x1="515.0" y1="200.1" x2="539.5" y2="213.7" stroke="rgb(0,0,0)"  stroke-width="1.0"/>
<line x1="517.1" y1="196.5" x2="541.6" y2="210.1" stroke="rgb(0,0,0)"  stroke-width="1.0"/>
<line x1="513.0" y1="203.8" x2="537.5" y2="217.4" stroke="rgb(0,0,0)"  stroke-width="1.0"/>
<line x1="381.5" y1="160.3" x2="358.8" y2="173.6" stroke="rgb(0,0,0)"  stroke-width="1.0"/>
<polygon points="415.376389 180.198934 379.472142 163.719514 383.528303 156.824040 " stroke-width="1.000000" fill="rgb(0,0,0)"  stroke="rgb(0,0,0)" />
<polygon points="324.391070 167.036563 338.152655 170.235694 334.209232 177.196256 " stroke-width="1.000000" fill="rgb(0,0,0)"  stroke="rgb(0,0,0)" />
<line x1="301.7" y1="167.1" x2="289.7" y2="174.0" stroke="rgb(0,0,0)"  stroke-width="1.0"/>
<line x1="248.5" y1="162.3" x2="247.7" y2="163.6" stroke="rgb(0,0,0)"  stroke-width="1.0"/>
<line x1="252.6" y1="163.9" x2="251.1" y2="166.4" stroke="rgb(0,0,0)"  stroke-width="1.0"/>
<line x1="256.6" y1="165.5" x2="254.6" y2="169.1" stroke="rgb(0,0,0)"  stroke-width="1.0"/>
<line x1="260.7" y1="167.1" x2="258.0" y2="171.8" stroke="rgb(0,0,0)"  stroke-width="1.0"/>
<line x1="264.8" y1="168.7" x2="261.4" y2="174.5" stroke="rgb(0,0,0)"  stroke-width="1.0"/>
<line x1="268.9" y1="170.3" x2="264.9" y2="177.3" stroke="rgb(0,0,0)"  stroke-width="1.0"/>
<line x1="243.4" y1="160.2" x2="209.3" y2="179.9" stroke="rgb(0,0,0)"  stroke-width="1.0"/>
<line x1="312.9" y1="147.6" x2="312.8" y2="133.4" stroke="rgb(0,0,0)"  stroke-width="1.0"/>
<line x1="322.7" y1="151.5" x2="334.7" y2="144.5" stroke="rgb(0,0,0)"  stroke-width="1.0"/>
<line x1="325.7" y1="156.7" x2="337.7" y2="149.7" stroke="rgb(0,0,0)"  stroke-width="1.0"/>
<line x1="324.0" y1="113.9" x2="347.9" y2="99.9" stroke="rgb(0,0,0)"  stroke-width="1.0"/>
<line x1="243.4" y1="160.2" x2="243.4" y2="133.4" stroke="rgb(0,0,0)"  stroke-width="1.0"/>
<line x1="209.3" y1="179.9" x2="186.8" y2="166.9" stroke="rgb(0,0,0)"  stroke-width="1.0"/>
<line x1="212.3" y1="179.9" x2="212.3" y2="207.0" stroke="rgb(0,0,0)"  stroke-width="1.0"/>
<line x1="206.3" y1="179.9" x2="206.3" y2="207.0" stroke="rgb(0,0,0)"  stroke-width="1.0"/>
<line x1="164.3" y1="166.9" x2="141.6" y2="180.0" stroke="rgb(0,0,0)"  stroke-width="1.0"/>
<line x1="141.6" y1="180.0" x2="107.8" y2="160.4" stroke="rgb(0,0,0)"  stroke-width="1.0"/>
<line x1="107.8" y1="160.4" x2="73.9" y2="180.0" stroke="rgb(0,0,0)"  stroke-width="1.0"/>
<line x1="107.8" y1="160.4" x2="107.8" y2="120.4" stroke="rgb(0,0,0)"  stroke-width="1.0"/>
<line x1="107.8" y1="120.4" x2="85.1" y2="107.3" stroke="rgb(0,0,0)"  stroke-width="1.0"/>
<line x1="73.9" y1="180.0" x2="51.3" y2="167.0" stroke="rgb(0,0,0)"  stroke-width="1.0"/>
<line x1="519.0" y1="168.2" x2="546.4" y2="160.0" stroke="rgb(0,0,0)"  stroke-width="1.0"/>
<line x1="558.9" y1="143.3" x2="558.9" y2="116.4" stroke="rgb(0,0,0)"  stroke-width="1.0"/>
<line x1="558.9" y1="116.4" x2="521.0" y2="102.5" stroke="rgb(0,0,0)"  stroke-width="1.0"/>
<line x1="550.7" y1="121.1" x2="524.1" y2="111.3" stroke="rgb(0,0,0)"  stroke-width="1.0"/>
<line x1="521.0" y1="102.5" x2="497.1" y2="134.4" stroke="rgb(0,0,0)"  stroke-width="1.0"/>
<line x1="497.1" y1="134.4" x2="519.0" y2="168.2" stroke="rgb(0,0,0)"  stroke-width="1.0"/>
<line x1="506.4" y1="135.5" x2="521.8" y2="159.3" stroke="rgb(0,0,0)"  stroke-width="1.0"/>
<line x1="481.1" y1="180.2" x2="457.9" y2="163.8" stroke="rgb(0,0,0)"  stroke-width="1.0"/>
<line x1="436.9" y1="164.1" x2="415.4" y2="180.2" stroke="rgb(0,0,0)"  stroke-width="1.0"/>
<line x1="415.4" y1="180.2" x2="427.3" y2="220.1" stroke="rgb(0,0,0)"  stroke-width="1.0"/>
<line x1="427.3" y1="220.1" x2="467.2" y2="220.1" stroke="rgb(0,0,0)"  stroke-width="1.0"/>
<line x1="467.2" y1="220.1" x2="481.1" y2="180.2" stroke="rgb(0,0,0)"  stroke-width="1.0"/>
<line x1="594.7" y1="98.5" x2="558.9" y2="116.4" stroke="rgb(0,0,0)"  stroke-width="1.0"/>
<line x1="569.9" y1="163.1" x2="583.6" y2="171.4" stroke="rgb(0,0,0)"  stroke-width="1.0"/>
<line x1="605.9" y1="172.3" x2="628.6" y2="160.3" stroke="rgb(0,0,0)"  stroke-width="1.0"/>
<line x1="604.4" y1="164.9" x2="619.9" y2="156.7" stroke="rgb(0,0,0)"  stroke-width="1.0"/>
<line x1="628.6" y1="160.3" x2="628.6" y2="133.4" stroke="rgb(0,0,0)"  stroke-width="1.0"/>
<line x1="617.4" y1="113.2" x2="594.7" y2="98.5" stroke="rgb(0,0,0)"  stroke-width="1.0"/>
<line x1="611.9" y1="118.2" x2="595.8" y2="107.8" stroke="rgb(0,0,0)"  stroke-width="1.0"/>
<line x1="347.9" y1="99.9" x2="382.5" y2="119.7" stroke="rgb(0,0,0)"  stroke-width="1.0"/>
<line x1="356.7" y1="96.7" x2="380.9" y2="110.5" stroke="rgb(0,0,0)"  stroke-width="1.0"/>
<line x1="382.5" y1="119.7" x2="417.0" y2="99.6" stroke="rgb(0,0,0)"  stroke-width="1.0"/>
<line x1="417.0" y1="99.6" x2="416.8" y2="59.8" stroke="rgb(0,0,0)"  stroke-width="1.0"/>
<line x1="409.7" y1="93.7" x2="409.6" y2="65.8" stroke="rgb(0,0,0)"  stroke-width="1.0"/>
<line x1="416.8" y1="59.8" x2="382.2" y2="40.0" stroke="rgb(0,0,0)"  stroke-width="1.0"/>
<line x1="382.2" y1="40.0" x2="347.8" y2="60.1" stroke="rgb(0,0,0)"  stroke-width="1.0"/>
<line x1="380.6" y1="49.2" x2="356.6" y2="63.3" stroke="rgb(0,0,0)"  stroke-width="1.0"/>
<line x1="347.8" y1="60.1" x2="347.9" y2="99.9" stroke="rgb(0,0,0)"  stroke-width="1.0"/>
<text x="552.851917" y="164.286346" fill="rgb(12,12,255)"  stroke="rgb(12,12,255)" stroke-width="1" font-size="16" >N</text>
<text x="588.720798" y="186.206218" fill="rgb(12,12,255)"  stroke="rgb(12,12,255)" stroke-width="1" font-size="16" >N</text>
<text x="441.259840" y="164.286346" fill="rgb(255,12,12)"  stroke="rgb(255,12,12)" stroke-width="1" font-size="16" >O</text>
<text x="487.092300" y="259.936697" fill="rgb(255,12,12)"  stroke="rgb(255,12,12)" stroke-width="1" font-size="16" >OH</text>
<text x="622.596965" y="128.417464" fill="rgb(12,12,255)"  stroke="rgb(12,12,255)" stroke-width="1" font-size="16" >N</text>
<text x="590.720798" y="66.643278" fill="rgb(12,12,255)"  stroke="rgb(12,12,255)" stroke-width="1" font-size="16" >NH</text>
<text x="614.720798" y="70.323278" fill="rgb(12,12,255)"  stroke="rgb(12,12,255)" stroke-width="1" font-size="13" >2</text>
<text x="387.412811" y="259.936697" fill="rgb(255,12,12)"  stroke="rgb(255,12,12)" stroke-width="1" font-size="16" >HO</text>
<text x="544.881054" y="228.053247" fill="rgb(12,12,255)"  stroke="rgb(12,12,255)" stroke-width="1" font-size="16" >N</text>
<text x="341.624057" y="188.198934" fill="rgb(255,12,12)"  stroke="rgb(255,12,12)" stroke-width="1" font-size="16" >O</text>
<text x="306.947957" y="168.553604" fill="rgb(255,127,0)"  stroke="rgb(255,127,0)" stroke-width="1" font-size="16" >P</text>
<text x="272.434122" y="188.480761" fill="rgb(12,12,255)"  stroke="rgb(12,12,255)" stroke-width="1" font-size="16" >N</text>
<text x="272.434122" y="204.480761" fill="rgb(12,12,255)"  stroke="rgb(12,12,255)" stroke-width="1" font-size="16" >H</text>
<text x="306.780000" y="128.428851" fill="rgb(255,12,12)"  stroke="rgb(255,12,12)" stroke-width="1" font-size="16" >O</text>
<text x="341.464639" y="148.626447" fill="rgb(255,12,12)"  stroke="rgb(255,12,12)" stroke-width="1" font-size="16" >O</text>
<text x="239.379407" y="128.423157" fill="rgb(102,102,102)"  stroke="rgb(102,102,102)" stroke-width="1" font-size="16" >CH</text>
<text x="263.379407" y="132.103157" fill="rgb(102,102,102)"  stroke="rgb(102,102,102)" stroke-width="1" font-size="13" >3</text>
<text x="169.535979" y="168.402727" fill="rgb(255,12,12)"  stroke="rgb(255,12,12)" stroke-width="1" font-size="16" >O</text>
<text x="203.318203" y="228.044707" fill="rgb(255,12,12)"  stroke="rgb(255,12,12)" stroke-width="1" font-size="16" >O</text>
<text x="47.796458" y="108.817682" fill="rgb(102,102,102)"  stroke="rgb(102,102,102)" stroke-width="1" font-size="16" >H</text>
<text x="59.796458" y="112.497682" fill="rgb(102,102,102)"  stroke="rgb(102,102,102)" stroke-width="1" font-size="13" >3</text>
<text x="66.296458" y="108.817682" fill="rgb(102,102,102)"  stroke="rgb(102,102,102)" stroke-width="1" font-size="16" >C</text>
<text x="14.000000" y="168.456815" fill="rgb(102,102,102)"  stroke="rgb(102,102,102)" stroke-width="1" font-size="16" >H</text>
<text x="26.000000" y="172.136815" fill="rgb(102,102,102)"  stroke="rgb(102,102,102)" stroke-width="1" font-size="13" >3</text>
<text x="32.500000" y="168.456815" fill="rgb(102,102,102)"  stroke="rgb(102,102,102)" stroke-width="1" font-size="16" >C</text>
<text font-size="18.000000" fill ="black" font-family="sans-serif"
x="10.000000" y="20.000000" ></text>
<title> - OBDepict</title>
</svg>
